<?xml version="1.0" encoding="UTF-8"?>
<!-- Do not edit this file with editors other than draw.io -->
<!DOCTYPE svg PUBLIC "-//W3C//DTD SVG 1.1//EN" "http://www.w3.org/Graphics/SVG/1.1/DTD/svg11.dtd">
<svg xmlns="http://www.w3.org/2000/svg" style="background: transparent; background-color: transparent; color-scheme: light dark;" xmlns:xlink="http://www.w3.org/1999/xlink" version="1.1" width="403px" height="336px" viewBox="-0.5 -0.5 403 336" content="&lt;mxfile host=&quot;app.diagrams.net&quot; agent=&quot;Mozilla/5.0 (Windows NT 10.0; Win64; x64) AppleWebKit/537.36 (KHTML, like Gecko) Chrome/137.0.0.0 Safari/537.36&quot; version=&quot;27.1.6&quot;&gt;&#10;  &lt;diagram name=&quot;Seite-1&quot; id=&quot;VmLxkXrSgt1Iy969VBlG&quot;&gt;&#10;    &lt;mxGraphModel dx=&quot;1178&quot; dy=&quot;458&quot; grid=&quot;1&quot; gridSize=&quot;10&quot; guides=&quot;1&quot; tooltips=&quot;1&quot; connect=&quot;1&quot; arrows=&quot;1&quot; fold=&quot;1&quot; page=&quot;1&quot; pageScale=&quot;1&quot; pageWidth=&quot;827&quot; pageHeight=&quot;1169&quot; math=&quot;0&quot; shadow=&quot;0&quot;&gt;&#10;      &lt;root&gt;&#10;        &lt;mxCell id=&quot;0&quot; /&gt;&#10;        &lt;mxCell id=&quot;1&quot; parent=&quot;0&quot; /&gt;&#10;        &lt;mxCell id=&quot;9x_L3wbdHCZvMuBkLduB-1&quot; value=&quot;&quot; style=&quot;ellipse;whiteSpace=wrap;html=1;fillStyle=solid;fillColor=#FFFFFF;strokeWidth=10;gradientColor=none;&quot; parent=&quot;1&quot; vertex=&quot;1&quot;&gt;&#10;          &lt;mxGeometry x=&quot;320&quot; y=&quot;90&quot; width=&quot;196&quot; height=&quot;250&quot; as=&quot;geometry&quot; /&gt;&#10;        &lt;/mxCell&gt;&#10;        &lt;mxCell id=&quot;9x_L3wbdHCZvMuBkLduB-2&quot; value=&quot;&quot; style=&quot;ellipse;whiteSpace=wrap;html=1;strokeWidth=4;&quot; parent=&quot;1&quot; vertex=&quot;1&quot;&gt;&#10;          &lt;mxGeometry x=&quot;350&quot; y=&quot;170&quot; width=&quot;60&quot; height=&quot;40&quot; as=&quot;geometry&quot; /&gt;&#10;        &lt;/mxCell&gt;&#10;        &lt;mxCell id=&quot;9x_L3wbdHCZvMuBkLduB-3&quot; value=&quot;&quot; style=&quot;ellipse;whiteSpace=wrap;html=1;strokeWidth=4;&quot; parent=&quot;1&quot; vertex=&quot;1&quot;&gt;&#10;          &lt;mxGeometry x=&quot;430&quot; y=&quot;170&quot; width=&quot;60&quot; height=&quot;40&quot; as=&quot;geometry&quot; /&gt;&#10;        &lt;/mxCell&gt;&#10;        &lt;mxCell id=&quot;9x_L3wbdHCZvMuBkLduB-4&quot; value=&quot;&quot; style=&quot;ellipse;shape=cloud;whiteSpace=wrap;html=1;fillColor=#000000;&quot; parent=&quot;1&quot; vertex=&quot;1&quot;&gt;&#10;          &lt;mxGeometry x=&quot;360&quot; y=&quot;170&quot; width=&quot;15&quot; height=&quot;20&quot; as=&quot;geometry&quot; /&gt;&#10;        &lt;/mxCell&gt;&#10;        &lt;mxCell id=&quot;9x_L3wbdHCZvMuBkLduB-5&quot; value=&quot;&quot; style=&quot;ellipse;shape=cloud;whiteSpace=wrap;html=1;fillColor=#000000;rotation=60;&quot; parent=&quot;1&quot; vertex=&quot;1&quot;&gt;&#10;          &lt;mxGeometry x=&quot;441.08&quot; y=&quot;172.5&quot; width=&quot;15&quot; height=&quot;17.5&quot; as=&quot;geometry&quot; /&gt;&#10;        &lt;/mxCell&gt;&#10;        &lt;mxCell id=&quot;9x_L3wbdHCZvMuBkLduB-6&quot; value=&quot;&quot; style=&quot;shape=xor;whiteSpace=wrap;html=1;rotation=-90;strokeColor=default;fillColor=#000000;&quot; parent=&quot;1&quot; vertex=&quot;1&quot;&gt;&#10;          &lt;mxGeometry x=&quot;408&quot; y=&quot;220&quot; width=&quot;20&quot; height=&quot;80&quot; as=&quot;geometry&quot; /&gt;&#10;        &lt;/mxCell&gt;&#10;        &lt;mxCell id=&quot;9x_L3wbdHCZvMuBkLduB-7&quot; value=&quot;&quot; style=&quot;curved=1;endArrow=none;html=1;rounded=0;strokeColor=#FFFFFF;startFill=0;&quot; parent=&quot;1&quot; edge=&quot;1&quot;&gt;&#10;          &lt;mxGeometry width=&quot;50&quot; height=&quot;50&quot; relative=&quot;1&quot; as=&quot;geometry&quot;&gt;&#10;            &lt;mxPoint x=&quot;669.9989669766042&quot; y=&quot;205.27702535534567&quot; as=&quot;sourcePoint&quot; /&gt;&#10;            &lt;mxPoint x=&quot;677.44&quot; y=&quot;300&quot; as=&quot;targetPoint&quot; /&gt;&#10;            &lt;Array as=&quot;points&quot;&gt;&#10;              &lt;mxPoint x=&quot;697.44&quot; y=&quot;210&quot; /&gt;&#10;              &lt;mxPoint x=&quot;717.44&quot; y=&quot;220&quot; /&gt;&#10;              &lt;mxPoint x=&quot;717.44&quot; y=&quot;250&quot; /&gt;&#10;            &lt;/Array&gt;&#10;          &lt;/mxGeometry&gt;&#10;        &lt;/mxCell&gt;&#10;        &lt;mxCell id=&quot;C8hnUUfnp8Wkzj10J1dU-1&quot; value=&quot;&quot; style=&quot;whiteSpace=wrap;html=1;shape=mxgraph.basic.loud_callout;rotation=10;&quot; vertex=&quot;1&quot; parent=&quot;1&quot;&gt;&#10;          &lt;mxGeometry x=&quot;470&quot; y=&quot;140&quot; width=&quot;160&quot; height=&quot;127.5&quot; as=&quot;geometry&quot; /&gt;&#10;        &lt;/mxCell&gt;&#10;        &lt;mxCell id=&quot;C8hnUUfnp8Wkzj10J1dU-2&quot; value=&quot;&quot; style=&quot;whiteSpace=wrap;html=1;shape=mxgraph.basic.cloud_callout&quot; vertex=&quot;1&quot; parent=&quot;1&quot;&gt;&#10;          &lt;mxGeometry x=&quot;420&quot; y=&quot;10&quot; width=&quot;150&quot; height=&quot;140&quot; as=&quot;geometry&quot; /&gt;&#10;        &lt;/mxCell&gt;&#10;        &lt;mxCell id=&quot;C8hnUUfnp8Wkzj10J1dU-7&quot; value=&quot;&quot; style=&quot;rounded=0;whiteSpace=wrap;html=1;rotation=-90;fillColor=#FF0000;&quot; vertex=&quot;1&quot; parent=&quot;1&quot;&gt;&#10;          &lt;mxGeometry x=&quot;523&quot; y=&quot;180&quot; width=&quot;54&quot; height=&quot;40&quot; as=&quot;geometry&quot; /&gt;&#10;        &lt;/mxCell&gt;&#10;        &lt;mxCell id=&quot;C8hnUUfnp8Wkzj10J1dU-8&quot; value=&quot;&quot; style=&quot;rounded=0;whiteSpace=wrap;html=1;rotation=-90;fillColor=#000000;&quot; vertex=&quot;1&quot; parent=&quot;1&quot;&gt;&#10;          &lt;mxGeometry x=&quot;470&quot; y=&quot;40&quot; width=&quot;54&quot; height=&quot;40&quot; as=&quot;geometry&quot; /&gt;&#10;        &lt;/mxCell&gt;&#10;      &lt;/root&gt;&#10;    &lt;/mxGraphModel&gt;&#10;  &lt;/diagram&gt;&#10;&lt;/mxfile&gt;&#10;"><defs/><g><g data-cell-id="0"><g data-cell-id="1"><g data-cell-id="9x_L3wbdHCZvMuBkLduB-1"><g><ellipse cx="103" cy="205" rx="98" ry="125" fill="#ffffff" stroke="#000000" stroke-width="10" pointer-events="all" style="fill: light-dark(rgb(255, 255, 255), rgb(18, 18, 18)); stroke: light-dark(rgb(0, 0, 0), rgb(255, 255, 255));"/></g></g><g data-cell-id="9x_L3wbdHCZvMuBkLduB-2"><g><ellipse cx="65" cy="180" rx="30" ry="20" fill="#ffffff" stroke="#000000" stroke-width="4" pointer-events="all" style="fill: light-dark(#ffffff, var(--ge-dark-color, #121212)); stroke: light-dark(rgb(0, 0, 0), rgb(255, 255, 255));"/></g></g><g data-cell-id="9x_L3wbdHCZvMuBkLduB-3"><g><ellipse cx="145" cy="180" rx="30" ry="20" fill="#ffffff" stroke="#000000" stroke-width="4" pointer-events="all" style="fill: light-dark(#ffffff, var(--ge-dark-color, #121212)); stroke: light-dark(rgb(0, 0, 0), rgb(255, 255, 255));"/></g></g><g data-cell-id="9x_L3wbdHCZvMuBkLduB-4"><g><path d="M 48.75 165 C 45.75 165 45 170 47.4 171 C 45 173.2 47.7 178 49.65 176 C 51 180 55.5 180 57 176 C 60 176 60 172 58.13 170 C 60 166 57 162 54.38 164 C 52.5 161 49.5 161 48.75 165 Z" fill="#000000" stroke="#000000" stroke-miterlimit="10" pointer-events="all" style="fill: light-dark(rgb(0, 0, 0), rgb(237, 237, 237)); stroke: light-dark(rgb(0, 0, 0), rgb(255, 255, 255));"/></g></g><g data-cell-id="9x_L3wbdHCZvMuBkLduB-5"><g><path d="M 129.83 166.88 C 126.83 166.88 126.08 171.25 128.48 172.13 C 126.08 174.05 128.78 178.25 130.73 176.5 C 132.08 180 136.58 180 138.08 176.5 C 141.08 176.5 141.08 173 139.2 171.25 C 141.08 167.75 138.08 164.25 135.45 166 C 133.58 163.38 130.58 163.38 129.83 166.88 Z" fill="#000000" stroke="#000000" stroke-miterlimit="10" transform="rotate(60,133.58,171.25)" pointer-events="all" style="fill: light-dark(rgb(0, 0, 0), rgb(237, 237, 237)); stroke: light-dark(rgb(0, 0, 0), rgb(255, 255, 255));"/></g></g><g data-cell-id="9x_L3wbdHCZvMuBkLduB-6"><g><path d="M 93 210 Q 113 210 113 250 Q 113 290 93 290 Q 103 250 93 210 Z" fill="#000000" stroke="#000000" stroke-miterlimit="10" transform="rotate(-90,103,250)" pointer-events="all" style="fill: light-dark(rgb(0, 0, 0), rgb(237, 237, 237)); stroke: light-dark(rgb(0, 0, 0), rgb(255, 255, 255));"/></g></g><g data-cell-id="9x_L3wbdHCZvMuBkLduB-7"><g><path d="M 355 195.28 Q 382.44 200 392.44 205 Q 402.44 210 402.44 225 Q 402.44 240 362.44 290" fill="none" stroke="#ffffff" stroke-miterlimit="10" pointer-events="stroke" style="stroke: light-dark(rgb(255, 255, 255), rgb(18, 18, 18));"/></g></g><g data-cell-id="C8hnUUfnp8Wkzj10J1dU-1"><g><path d="M 180.55 223.44 L 170.95 229.4 L 174.04 217.06 L 166.32 223.44 L 169.23 213.44 L 159.8 216.84 L 166.32 207.48 L 156.54 207.05 L 164.95 199.6 L 155 195.56 L 164.09 190.03 L 155.51 184.49 L 165.12 181.49 L 156.37 172.36 L 166.15 172.15 L 159.8 162.14 L 169.06 164.27 L 165.12 154.05 L 174.72 158.1 L 172.49 148.52 L 181.92 152.56 L 180.55 143.09 L 187.93 149.8 L 188.95 139.15 L 195.13 147.03 L 195.81 137.24 L 203.87 144.69 L 206.96 132.77 L 212.11 143.2 L 214.51 131.28 L 220.51 142.77 L 224.62 130 L 228.4 142.35 L 233.2 130 L 235.77 142.77 L 242.97 132.13 L 242.12 143.41 L 250.01 131.28 L 249.49 144.05 L 258.75 132.98 L 259.78 145.11 L 268.35 135.75 L 268.53 148.52 L 278.3 139.37 L 275.9 151.29 L 288.08 143.2 L 283.45 155.12 L 298.88 146.6 L 292.36 158.95 L 306.08 155.33 L 301.11 166.19 L 311.4 165.97 L 304.2 172.78 L 315 175.13 L 305.74 181.09 L 314.83 184.92 L 303.85 187.05 L 313.46 194.49 L 303.51 195.56 L 310.88 204.07 L 299.39 201.31 L 305.57 212.59 L 295.62 207.9 L 300.25 218.76 L 290.82 216.63 L 291.85 227.91 L 285.85 221.31 L 284.65 233.45 L 278.47 225.15 L 277.96 238.98 L 271.61 227.91 L 268.53 240.9 L 264.24 229.19 L 259.95 244.3 L 257.38 231.32 L 252.58 244.52 L 249.32 232.38 L 245.55 244.73 L 242.29 232.38 L 238 246.01 L 235.6 232.38 L 231.14 244.3 L 229.08 230.89 L 223.77 245.37 L 221.54 230.89 L 217.25 246.43 L 216.05 231.74 L 210.56 247.28 L 207.99 229.19 L 204.05 243.45 L 200.96 231.74 L 161.52 257.5 Z" fill="#ffffff" stroke="#000000" stroke-miterlimit="10" transform="rotate(10,235,193.75)" pointer-events="all" style="fill: light-dark(#ffffff, var(--ge-dark-color, #121212)); stroke: light-dark(rgb(0, 0, 0), rgb(255, 255, 255));"/></g></g><g data-cell-id="C8hnUUfnp8Wkzj10J1dU-2"><g><path d="M 125.08 72.51 C 119.56 75.32 113.35 72.81 109.83 66.33 C 106.3 59.85 106.3 50.96 109.83 44.48 C 113.35 38.01 119.56 35.49 125.08 38.31 C 125.03 26.9 130.14 16.65 137.9 12.59 C 145.65 8.53 154.43 11.51 159.92 20.07 C 163.44 7.94 171.98 -0.01 181.48 -0.01 C 190.98 -0.01 199.53 7.94 203.05 20.07 C 208.69 13.08 216.73 11.11 223.78 14.98 C 230.83 18.86 235.66 27.9 236.24 38.31 C 241.75 35.49 247.96 38.01 251.48 44.48 C 255.01 50.96 255.01 59.85 251.48 66.33 C 247.96 72.81 241.75 75.32 236.24 72.51 C 235.63 83.5 230.29 92.93 222.68 96.42 C 215.07 99.9 206.68 96.77 201.39 88.47 C 197.19 98.07 189.64 103.95 181.48 103.95 C 173.33 103.95 165.78 98.07 161.58 88.47 C 157.57 99.55 146.15 104.96 136.07 100.55 C 125.99 96.15 121.07 83.59 125.08 72.51 Z" fill="#ffffff" stroke="#000000" stroke-linejoin="round" stroke-miterlimit="10" pointer-events="all" style="fill: light-dark(#ffffff, var(--ge-dark-color, #121212)); stroke: light-dark(rgb(0, 0, 0), rgb(255, 255, 255));"/><rect x="105" y="0" width="0" height="0" fill="none" stroke="#000000" pointer-events="all" style="stroke: light-dark(rgb(0, 0, 0), rgb(255, 255, 255));"/><ellipse cx="130.05" cy="111.27" rx="9.954651034177637" ry="6.156351791530946" fill="#ffffff" stroke="#000000" pointer-events="all" style="fill: light-dark(#ffffff, var(--ge-dark-color, #121212)); stroke: light-dark(rgb(0, 0, 0), rgb(255, 255, 255));"/><ellipse cx="118.44" cy="126.09" rx="6.304612321645836" ry="4.1042345276872965" fill="#ffffff" stroke="#000000" pointer-events="all" style="fill: light-dark(#ffffff, var(--ge-dark-color, #121212)); stroke: light-dark(rgb(0, 0, 0), rgb(255, 255, 255));"/><ellipse cx="108.98" cy="137.04" rx="3.981860413671054" ry="2.9641693811074923" fill="#ffffff" stroke="#000000" pointer-events="all" style="fill: light-dark(#ffffff, var(--ge-dark-color, #121212)); stroke: light-dark(rgb(0, 0, 0), rgb(255, 255, 255));"/></g></g><g data-cell-id="C8hnUUfnp8Wkzj10J1dU-7"><g><rect x="208" y="170" width="54" height="40" fill="#ff0000" stroke="#000000" transform="rotate(-90,235,190)" pointer-events="all" style="fill: light-dark(rgb(255, 0, 0), rgb(255, 144, 144)); stroke: light-dark(rgb(0, 0, 0), rgb(255, 255, 255));"/></g></g><g data-cell-id="C8hnUUfnp8Wkzj10J1dU-8"><g><rect x="155" y="30" width="54" height="40" fill="#000000" stroke="#000000" transform="rotate(-90,182,50)" pointer-events="all" style="fill: light-dark(rgb(0, 0, 0), rgb(237, 237, 237)); stroke: light-dark(rgb(0, 0, 0), rgb(255, 255, 255));"/></g></g></g></g></g></svg>